# xmcd
#
# Track frame offsets: 
#        150
#        15302
#        27002
#        44702
#        58802
#        72455
#        84755
#        94580
#        106732
#        127207
#
# Disc length: 1886 seconds
#
# Revision: 0
# Processed by: cddbd v1.5.2PL0 Copyright (c) Steve Scherf et al.
# Submitted via: ExactAudioCopy v1.0b6
#
DISCID=7c075c0a
DTITLE=Leonel "El Ranchero De Sinaloa" - Vengo A Ver Unos Ojos
DYEAR=2001
DGENRE=Banda
TTITLE0=Vengo A Ver Unos Ojos
TTITLE1=Ingratos Ojos Mios
TTITLE2=Procopio Y Jose Manuel
TTITLE3=Corrido De Santiago
TTITLE4=Es Imposible
TTITLE5=Dos Pasajes
TTITLE6=Morenita Encantadora
TTITLE7=Cuando Salgo A Los Campos
TTITLE8=Corrido De Juan Madrid
TTITLE9=Las Higueras
EXTD=
EXTT0=
EXTT1=
EXTT2=
EXTT3=
EXTT4=
EXTT5=
EXTT6=
EXTT7=
EXTT8=
EXTT9=
PLAYORDER=
